<?xml version="1.0" standalone="no"?>
<!DOCTYPE svg PUBLIC "-//W3C//DTD SVG 20010904//EN"
 "http://www.w3.org/TR/2001/REC-SVG-20010904/DTD/svg10.dtd">
<svg version="1.0" xmlns="http://www.w3.org/2000/svg"
 width="495.000000pt" height="221.000000pt" viewBox="0 0 495.000000 221.000000"
 preserveAspectRatio="xMidYMid meet">
<metadata>
Created by potrace 1.16, written by Peter Selinger 2001-2019
</metadata>
<g transform="translate(0.000000,221.000000) scale(0.100000,-0.100000)"
fill="#F5A097" stroke="none">
<path d="M191 1118 c-105 -601 -192 -1099 -191 -1105 0 -10 52 -13 223 -13
l223 0 63 358 c35 196 70 394 78 439 l15 83 768 0 c723 0 769 1 774 18 3 9 19
98 36 197 17 99 34 190 37 203 l5 22 -772 0 -772 0 5 23 c3 12 20 109 38 215
l33 192 881 0 880 0 38 218 c20 119 37 223 37 230 0 9 -227 12 -1103 12
l-1103 0 -193 -1092z"/>
<path d="M2551 1118 c-105 -601 -192 -1099 -191 -1105 0 -10 52 -13 223 -13
l223 0 155 875 154 875 212 0 c150 0 213 -3 213 -11 0 -6 -67 -393 -150 -861
-82 -467 -150 -856 -150 -864 0 -12 35 -14 223 -14 l222 0 154 875 155 875
214 0 214 0 -7 -37 c-3 -21 -72 -415 -154 -875 l-147 -838 226 0 226 0 192
1093 c106 600 192 1098 192 1105 0 9 -227 12 -1103 12 l-1103 0 -193 -1092z"/>
</g>
</svg>
